HIERARCHY
ROOT Hips
{
	OFFSET 0.000000 0.000000 0.000000 
	CHANNELS 6 Xposition Yposition Zposition Zrotation Yrotation Xrotation
	JOINT LeftUpLeg
	{
		OFFSET 1.363060 -1.794630 0.839290 
		CHANNELS 3 Zrotation Yrotation Xrotation
		JOINT LeftLeg
		{
			OFFSET 2.448110 -6.726130 0.000000 
			CHANNELS 3 Zrotation Yrotation Xrotation
			JOINT LeftFoot
			{
				OFFSET 2.562200 -7.039590 0.000000 
				CHANNELS 3 Zrotation Yrotation Xrotation
				JOINT LeftToeBase
				{
					OFFSET 0.157640 -0.433110 2.322550 
					CHANNELS 3 Zrotation Yrotation Xrotation
					End Site
					{
						OFFSET 0.000000 0.000000 0.000000 
					}
				}
			}
		}
	}
	JOINT RightUpLeg
	{
		OFFSET -1.305520 -1.794630 0.839290 
		CHANNELS 3 Zrotation Yrotation Xrotation
		JOINT RightLeg
		{
			OFFSET -2.542530 -6.985550 0.000000 
			CHANNELS 3 Zrotation Yrotation Xrotation
			JOINT RightFoot
			{
				OFFSET -2.568260 -7.056230 0.000000 
				CHANNELS 3 Zrotation Yrotation Xrotation
				JOINT RightToeBase
				{
					OFFSET -0.164730 -0.452590 2.363150 
					CHANNELS 3 Zrotation Yrotation Xrotation
					End Site
					{
						OFFSET 0.000000 0.000000 0.000000 
					}
				}
			}
		}
	}
	JOINT Spine
	{
		OFFSET 0.028270 2.035590 -0.193380 
		CHANNELS 3 Zrotation Yrotation Xrotation
		JOINT Spine1
		{
			OFFSET 0.056720 2.048850 -0.042750 
			CHANNELS 3 Zrotation Yrotation Xrotation
			JOINT Neck1
			{
				OFFSET -0.054170 1.746240 0.172020 
				CHANNELS 3 Zrotation Yrotation Xrotation
				JOINT Head
				{
					OFFSET 0.104070 1.761360 -0.123970 
					CHANNELS 3 Zrotation Yrotation Xrotation
					End Site
					{
						OFFSET 0.000000 0.000000 0.000000 
					}
				}
			}
			JOINT LeftArm
			{
				OFFSET 3.362410 1.200890 -0.311210 
				CHANNELS 3 Zrotation Yrotation Xrotation
				JOINT LeftForeArm
				{
					OFFSET 4.983000 -0.000000 -0.000000 
					CHANNELS 3 Zrotation Yrotation Xrotation
					JOINT LeftHand
					{
						OFFSET 3.483560 -0.000000 -0.000000 
						CHANNELS 3 Zrotation Yrotation Xrotation
						JOINT LeftHandIndex1
						{
							OFFSET 0.715260 -0.000000 -0.000000 
							CHANNELS 3 Zrotation Yrotation Xrotation
							End Site
							{
								OFFSET 0.000000 0.000000 0.000000 
							}
						}
					}
				}
			}
			JOINT RightArm
			{
				OFFSET -3.136600 1.374050 -0.404650 
				CHANNELS 3 Zrotation Yrotation Xrotation
				JOINT RightForeArm
				{
					OFFSET -5.241900 -0.000000 -0.000000 
					CHANNELS 3 Zrotation Yrotation Xrotation
					JOINT RightHand
					{
						OFFSET -3.444170 -0.000000 -0.000000 
						CHANNELS 3 Zrotation Yrotation Xrotation
						JOINT RightHandIndex1
						{
							OFFSET -0.622530 -0.000000 -0.000000 
							CHANNELS 3 Zrotation Yrotation Xrotation
							End Site
							{
								OFFSET 0.000000 0.000000 0.000000 
							}
						}
					}
				}
			}
		}
	}
}
MOTION
Frames: 12
Frame Time: 0.041667
23.509511 18.535390 4.799196 3.370241 -15.612222 3.911593 -15.306024 -0.234723 -21.630029 -0.071563 5.071186 16.439014 -0.000333 0.757104 6.258233 0.137200 2.387300 6.577200 13.199574 11.883354 -2.989524 -6.618607 -13.261633 44.690956 -2.012847 -3.985237 30.856729 -0.206200 2.923900 -8.067000 -7.275440 0.722266 3.143031 -2.407861 0.373828 0.441632 22.071049 -22.752748 11.514531 6.262700 -10.638200 7.904000 -85.933832 12.008997 -18.709138 10.628425 -12.190692 -1.010518 -1.499930 -1.065681 38.016733 -7.125000 0.000000 0.000000 91.495732 0.435559 25.736374 -17.389162 22.292599 -4.333571 0.623927 -1.370922 21.127332 7.125000 0.000000 0.000000 
23.520610 18.543051 4.949076 3.417629 -15.628754 3.584524 -15.562071 0.122931 -20.894538 -0.089656 5.010720 16.267079 0.049000 0.463655 5.968273 0.141600 2.425600 6.683300 13.128325 11.992228 -3.886806 -7.191995 -13.745805 46.760498 -1.965470 -4.581747 30.799142 -0.208900 2.942800 -8.119600 -7.219329 0.566066 3.084975 -2.357764 0.296369 0.176572 22.297564 -22.623129 11.396156 6.437900 -10.612800 7.880100 -85.983403 12.336202 -17.829931 10.667608 -12.183548 -1.007152 -1.449756 -1.104050 37.559057 -7.125000 0.000000 0.000000 91.302377 -0.152191 24.335127 -16.405191 20.920727 -3.835531 0.584558 -1.419584 22.058767 7.125000 0.000000 0.000000 
23.527583 18.552087 5.089036 3.672176 -15.513130 3.394733 -15.981858 0.288290 -20.348583 -0.086288 4.987189 16.239637 0.092836 0.159669 5.586822 0.186300 2.779700 7.666000 12.755246 12.046997 -5.091363 -7.824231 -14.226353 48.765007 -1.652439 -6.637823 30.101333 -0.024800 1.016100 -2.793000 -7.222513 0.435358 2.950232 -2.167388 0.233296 -0.096488 22.563741 -22.555026 11.285140 6.600400 -10.604600 7.882300 -85.952275 12.649318 -16.189835 10.705045 -12.131123 -1.008416 -1.436942 -1.048224 37.313937 -7.125000 0.000000 0.000000 91.078820 -0.615835 22.374324 -15.418900 19.514805 -3.359800 0.518265 -1.461608 23.333525 7.125000 0.000000 0.000000 
23.536423 18.552971 5.224969 3.765886 -15.421937 3.281178 -16.204535 0.301653 -19.742425 -0.091378 4.951560 16.159577 0.104369 0.046045 5.129944 0.239600 3.150100 8.697000 12.600360 12.045697 -6.340422 -8.419730 -14.652513 50.726180 -1.317700 -8.041986 28.964286 -0.005600 0.483900 -1.329800 -7.180996 0.359734 2.990104 -2.034591 0.190157 -0.195984 22.260812 -22.564850 11.394004 6.465700 -10.588400 7.929700 -85.946322 12.674191 -14.816672 10.891597 -12.319430 -1.040375 -1.385725 -1.082850 37.013196 -7.125000 0.000000 0.000000 90.961582 -0.848515 19.389070 -14.479834 18.146760 -2.927646 0.399269 -1.485477 25.692876 7.125000 0.000000 0.000000 
23.543298 18.554247 5.361295 3.557689 -15.245478 3.255931 -16.200288 0.412068 -19.199899 -0.104032 4.909847 16.039273 0.122408 -0.069638 4.744095 0.137000 2.385500 6.572400 12.839663 11.793684 -7.670014 -8.926965 -15.000435 52.589850 -1.178786 -7.929035 27.951370 -0.094500 1.982900 -5.458300 -7.010762 0.111154 3.094086 -1.926105 0.058663 -0.181657 21.667090 -22.397317 11.316343 6.222400 -10.501300 7.819500 -85.987204 12.514800 -14.277615 11.067213 -12.538780 -1.071792 -1.329204 -1.169970 37.043305 -7.125000 0.000000 0.000000 90.866691 -0.888831 15.889340 -13.493252 16.687285 -2.506154 0.242507 -1.543011 29.053804 7.125000 0.000000 0.000000 
23.547914 18.562891 5.499879 3.818175 -15.033293 3.116223 -16.747564 0.771597 -18.820074 -0.096259 4.879199 16.009448 0.160677 -0.338215 4.386299 0.050200 1.445400 3.975300 12.464113 11.518914 -9.050968 -9.444197 -15.354845 54.336911 -0.814330 -8.897534 26.335831 -0.026300 1.047600 -2.879900 -6.913027 -0.243513 3.195582 -1.553928 -0.128909 -0.105566 21.548162 -22.079989 10.865063 6.217700 -10.381200 7.611900 -86.105800 12.304983 -13.479803 11.224708 -12.710652 -1.101465 -1.273579 -1.290872 36.178067 -7.125000 0.000000 0.000000 90.605766 -0.668050 12.354660 -12.377706 15.020436 -2.076890 0.101479 -1.688507 32.606355 7.125000 0.000000 0.000000 
23.555281 18.573400 5.637482 4.136437 -14.896775 2.976990 -17.231554 0.839215 -18.333124 -0.094471 4.836607 15.936621 0.141455 -0.283953 4.071633 0.100800 2.047200 5.636200 11.990547 11.463775 -10.350242 -9.939208 -15.680635 55.972085 -0.389513 -10.056674 24.512733 -0.050900 -1.456200 4.005000 -6.823743 -0.488708 3.217173 -1.206482 -0.257752 -0.128039 21.407613 -21.872626 10.552061 6.190800 -10.304600 7.464300 -86.308289 12.158526 -12.632101 11.407099 -12.918259 -1.142456 -1.259849 -1.317902 35.051255 -7.125000 0.000000 0.000000 90.261657 -0.547312 8.755253 -11.423768 13.602331 -1.742445 -0.032863 -1.771257 36.089139 7.125000 0.000000 0.000000 
23.564808 18.579293 5.772334 4.249859 -14.614246 2.908475 -17.486151 0.747826 -17.766033 -0.097924 4.795334 15.847117 0.138583 -0.301006 3.857798 0.149000 2.487300 6.854300 11.798359 11.197931 -11.653227 -10.367153 -15.951211 57.482285 -0.188100 -10.238665 23.242135 -0.124600 -2.275100 6.266600 -6.817317 -0.664455 3.313397 -1.109670 -0.356535 -0.113036 21.074720 -21.836234 10.578316 6.024600 -10.265100 7.457600 -86.307635 11.783767 -12.283876 11.570660 -13.146100 -1.190596 -1.326371 -1.183666 35.053331 -7.125000 0.000000 0.000000 89.992229 -0.559635 4.826528 -10.733558 12.618882 -1.523697 -0.223570 -1.802739 40.040901 7.125000 0.000000 0.000000 
23.573156 18.576052 5.907776 4.467365 -14.166654 2.763387 -17.920537 0.807760 -17.217570 -0.082681 4.791146 15.879854 0.180250 -0.578435 3.473883 0.126200 2.290300 6.308500 11.536754 10.756843 -12.846917 -10.731992 -16.191000 58.854832 0.056499 -10.085386 21.290247 -0.030400 -1.124800 3.092300 -6.801444 -0.816889 3.437476 -0.996620 -0.447904 -0.117659 21.203191 -21.944728 10.700879 6.049400 -10.291600 7.593800 -86.230175 11.378965 -11.306189 11.705868 -13.307712 -1.239304 -1.405768 -1.051091 34.705601 -7.125000 0.000000 0.000000 89.685366 -0.761316 -0.026718 -10.140847 11.847782 -1.365234 -0.457256 -1.915697 44.584258 7.125000 0.000000 0.000000 
23.579147 18.567016 6.039289 4.731742 -13.636918 2.685441 -18.384029 0.787252 -16.770273 -0.059502 4.803192 15.973277 0.231751 -0.915242 2.989962 0.169700 2.654000 7.316800 11.179428 10.277830 -14.113995 -11.051581 -16.407882 60.086742 0.402079 -10.044723 18.530197 -0.003800 0.400300 -1.100000 -6.691940 -1.021377 3.462588 -0.743581 -0.561159 -0.116643 21.819918 -21.900060 10.106817 6.329900 -10.324300 7.455200 -86.255335 11.037005 -10.267637 11.816211 -13.417444 -1.277145 -1.454806 -0.978065 34.185274 -7.125000 0.000000 0.000000 89.332131 -0.998126 -6.060393 -9.582738 11.182876 -1.219295 -0.696118 -1.883651 49.909029 7.125000 0.000000 0.000000 
23.585728 18.557980 6.160293 4.780286 -13.149604 2.847525 -18.591181 0.628942 -16.524274 -0.040251 4.824260 16.077424 0.278802 -1.210094 2.736872 0.161900 2.592200 7.145400 11.024679 9.897848 -15.641148 -11.355430 -16.588841 61.169711 0.711998 -10.378073 16.287965 -0.024500 1.010900 -2.778700 -6.554562 -1.260775 3.475689 -0.556814 -0.691573 -0.026751 22.342415 -21.716069 9.088512 6.541500 -10.310700 7.105600 -86.154018 10.392366 -9.543533 11.851472 -13.427413 -1.287723 -1.459967 -0.957529 34.006510 -7.125000 0.000000 0.000000 89.012743 -1.109052 -12.554053 -9.115323 10.703996 -1.095518 -0.939981 -1.659135 56.094740 7.125000 0.000000 0.000000 
23.589067 18.549337 6.277761 4.633486 -12.826153 3.061716 -18.538503 0.335522 -16.336983 -0.012301 4.902067 16.306739 0.283064 -1.232736 2.409870 0.091600 1.951900 5.372900 11.146264 9.749344 -17.168799 -11.625097 -16.722426 62.061494 1.006191 -11.018525 14.524629 -0.041100 1.308700 -3.598500 -6.333299 -1.410785 3.414976 -0.448627 -0.771148 -0.096618 22.348787 -21.797056 8.933306 6.498100 -10.344300 7.084800 -86.000994 9.761523 -8.604436 11.920425 -13.485059 -1.306443 -1.452418 -0.964327 33.648341 -7.125000 0.000000 0.000000 88.719962 -1.477953 -18.311824 -8.795550 10.474845 -1.026768 -1.123089 -1.527453 61.387836 7.125000 0.000000 0.000000 
